<?xml version="1.0" encoding="UTF-8"?>
<svg id="Layer_1" xmlns="http://www.w3.org/2000/svg" version="1.1" viewBox="0 0 518 518">
  <!-- Generator: Adobe Illustrator 29.0.1, SVG Export Plug-In . SVG Version: 2.1.0 Build 192)  -->
  <defs>
    <style>
      .st0 {
        fill: #fff;
      }
    </style>
  </defs>
  <path class="st0" d="M247.07,410.1h-14.75c-.52-.17-.51-.36,0-.59,4.78,0,10.17-.49,14.75.59Z"/>
  <path class="st0" d="M286.61,409.51c.52.17.51.36,0,.59h-14.75c4.58-1.08,9.97-.59,14.75-.59Z"/>
  <path class="st0" d="M223.47,409.51c.52.17.51.36,0,.59h-5.31c1.16-1.07,3.65-.58,5.31-.59Z"/>
  <path class="st0" d="M232.32,409.51v.59h-4.72c-.52-.17-.51-.36,0-.59,1.57,0,3.15,0,4.72,0Z"/>
  <path class="st0" d="M295.46,409.51c.52.17.51.36,0,.59h-4.72c-.52-.17-.51-.36,0-.59,1.57,0,3.15-.02,4.72,0Z"/>
  <path class="st0" d="M227.6,409.51v.59h-4.13v-.59c1.38-.01,2.76,0,4.13,0Z"/>
  <path class="st0" d="M290.74,409.51v.59h-4.13v-.59c1.38,0,2.76,0,4.13,0Z"/>
  <path class="st0" d="M299.59,410.1h-4.13v-.59c1.29.01,3.33-.44,4.13.59Z"/>
  <path class="st0" d="M214.03,410.1h-3.54c.59-.97,2.98-.95,3.54,0Z"/>
  <path class="st0" d="M306.08,410.1h-3.54c.59-.97,2.98-.95,3.54,0Z"/>
  <path class="st0" d="M409.93,196.65c-.17.51-.36.51-.59,0,.04-.5.02-1.01.59-1.18v1.18Z"/>
  <path class="st0" d="M409.93,197.83c-.17.51-.36.51-.59,0,0-.39-.03-.79,0-1.18h.59v1.18Z"/>
  <path class="st0" d="M409.93,199.01c-.17.51-.36.51-.59,0-.04-.38,0-.79,0-1.18h.59v1.18Z"/>
  <path class="st0" d="M409.93,200.18c-.58-.17-.54-.68-.59-1.18h.59v1.18Z"/>
  <path class="st0" d="M409.93,315.76c-.17.51-.36.51-.59,0,.04-.5.02-1.01.59-1.18v1.18Z"/>
  <path class="st0" d="M409.93,316.94c-.17.51-.36.51-.59,0,0-.39-.03-.79,0-1.18h.59v1.18Z"/>
  <path class="st0" d="M409.93,318.12c-.17.51-.36.51-.59,0-.01-.39,0-.79,0-1.18h.59v1.18Z"/>
  <path class="st0" d="M409.93,319.3c-.17.51-.36.51-.59,0-.04-.38.01-.79,0-1.18h.59v1.18Z"/>
  <path class="st0" d="M409.93,320.47c-.58-.17-.54-.68-.59-1.18h.59v1.18Z"/>
  <polygon class="st0" points="310.8 410.1 309.62 410.1 310.33 409.7 310.8 410.1"/>
  <path class="st0" d="M409.93,193.7c.26-27.16-11.79-54.08-34.33-69.68-21.32-14.75-41.65-15.52-66.92-16.17-33.77-.86-67.79-.31-101.46.43-23.15.52-44.79,1.63-64.35,15.68-26.53,19.06-34.01,46.36-34.57,77.53-.68,37.59-.49,75.74-.06,113.39.32,27.38,4.97,51.81,25.42,71.75,18.88,18.4,45.33,23.87,70.94,23.46,1.95.1,3.95-.07,5.9,0,1.13-.48,2.42-.48,3.54,0h4.13c1.86-.24,3.63-.43,5.31-.59,1.38.43,2.77.43,4.13,0,1.57.43,3.16.43,4.72,0,4.88.17,9.79.36,14.75.59h24.78c4.96-.23,9.88-.42,14.75-.59,1.36.43,2.76.43,4.13,0,1.53.45,3.19.45,4.72,0,1.33.16,2.71.36,4.13.59h2.95c1.13-.48,2.42-.48,3.54,0h3.54c.45-.17.76-.25,1.18,0h1.77c19.72-.3,37.88-1.41,56.33-11.71,28.31-15.81,40.7-44.52,41.03-74.97v-2.95c-.14-.64-.34-1.03-.59-1.18.43-.39.42-.81,0-1.18.43-.39.42-.81,0-1.18.38-.45.51-.91,0-1.18l.59-1.18v-114.39c-.14-.64-.34-1.03-.59-1.18.38-.45.51-.92,0-1.18.38-.45.51-.91,0-1.18l.59-1.18v-1.77ZM382.76,303.06c-.65,21.11.59,42.5-14.12,59.59-16.9,19.64-39.09,18.93-62.88,19.71-35.43,1.17-78.9,2.92-113.86-.57-56.32-5.63-55.54-47.33-56.39-92.84-.51-27.67-.48-56.8.59-84.37,1.94-50.02,20.89-66.6,70.12-68.5,34.93-1.35,74.12-1.19,108.97.44,46.65,2.18,64.87,17.45,67.58,65.14,1.86,32.78.99,68.51-.02,101.39Z"/>
  <path class="st0" d="M336.02,160.82c25.98-4.38,29.78,32.56,6.79,35.68-24.29,3.29-27.71-32.15-6.79-35.68Z"/>
  <path class="st0" d="M250.49,182.08c-42.07,3.73-72.68,44.36-68.32,85.61,6.42,60.79,80.33,90.95,127.14,51,58.4-49.85,18.65-143.47-58.82-136.61ZM297.8,291.86c-22.67,26.95-66.64,21.99-82.9-9.11-16.13-30.86,3.65-70.16,38.54-73.55,45.83-4.45,73.92,47.51,44.36,82.66Z"/>
</svg>