<?xml version="1.0" encoding="UTF-8"?>
<svg id="Layer_1" xmlns="http://www.w3.org/2000/svg" version="1.1" viewBox="0 0 518 518">
  <!-- Generator: Adobe Illustrator 29.0.1, SVG Export Plug-In . SVG Version: 2.1.0 Build 192)  -->
  <defs>
    <style>
      .st0 {
        fill: #fff;
      }
    </style>
  </defs>
  <path class="st0" d="M409.77,409h-62.58l.03-107.89c-1.21-24.62-7.4-44.97-36.5-43.07-25.29,1.65-32.28,21.61-33.5,43.8l.03,107.89h-62.58v-201.72h59.27c.08,0,1.1,1.03,1.1,1.1v26.87l4.84-7.3c19.03-25.17,54.32-29.95,83.33-21.6,33.41,9.61,43.11,38.74,45.81,70.51,1.58,43.74.36,87.62.74,131.41Z"/>
  <rect class="st0" x="113.07" y="208.01" width="62.58" height="201.72"/>
  <path class="st0" d="M140.9,108.1c48.1-4.46,53.19,69.04,6.4,72.65-47.2,3.65-53.62-68.27-6.4-72.65Z"/>
</svg>