<?xml version="1.0" encoding="UTF-8"?>
<svg id="Layer_1" xmlns="http://www.w3.org/2000/svg" version="1.1" viewBox="0 0 1080 1080">
  <!-- Generator: Adobe Illustrator 29.0.1, SVG Export Plug-In . SVG Version: 2.1.0 Build 192)  -->
  <defs>
    <style>
      .st0 {
        fill: #c19558;
      }
    </style>
  </defs>
  <path class="st0" d="M469.22,334c86.8,8.83,140.85,86.17,120.3,171.57-18.45,76.63-79.87,142.96-121.46,207.89-5.1,5.06-12.03,5.06-17.13,0-57.33-88.06-180.85-217.9-98.79-326.26,22.59-29.82,59.96-50.65,97.62-53.21h19.46ZM460.22,685.81c25.6-38.84,55.16-75.53,77.99-116.26,27.43-48.94,49.21-103.85,18.44-157.18-42.88-74.31-151.47-74.28-194.33,0-29.26,50.72-11.09,102.54,14.43,149.95,23.39,43.46,54.48,82.2,81.92,123.02l1.55.46Z"/>
  <path class="st0" d="M452.59,401.59c54.81-5.32,93.1,53.91,64.84,101.52-28.01,47.2-98.66,42.63-119.97-7.91-17.52-41.55,10.15-89.25,55.13-93.62ZM454.08,424.03c-57.23,6.52-49.06,94.62,9.51,89.61,58.8-5.03,50.83-96.48-9.51-89.61Z"/>
</svg>