<?xml version="1.0" encoding="UTF-8"?>
<svg id="Layer_1" xmlns="http://www.w3.org/2000/svg" version="1.1" viewBox="0 0 518 518">
  <!-- Generator: Adobe Illustrator 29.0.1, SVG Export Plug-In . SVG Version: 2.1.0 Build 192)  -->
  <defs>
    <style>
      .st0 {
        fill: #fff;
      }
    </style>
  </defs>
  <path class="st0" d="M250.33,108.22l1.18.59c.27-.51.73-.38,1.18,0,.37-.42.79-.43,1.18,0,.71-.2,1.49-.4,2.36-.59h9.44c.82.2,1.61.39,2.36.59.29-.47.72-.34,1.18,0l1.77-.59c.39.02.79-.03,1.18,0,46.36,3.97,90.97,32.39,103.63,78.9,12.53,46.05-7.39,104.64-49.79,128.57-27.55,15.55-69.53,19.47-90.4-8.73-5.7,19.56-9.33,40.72-17.59,59.37-5.1,11.52-16.4,32.22-24.39,41.66-1.11,1.31-2.39,3.43-4.06,1.32-1.07-1.36-2.61-14.39-2.91-17.14-1.75-16.11-2.3-34.53.87-50.42,6.01-30.15,16.03-60.54,22.59-90.68-8.72-20.67-8.91-49.74,9.87-64.99,10.72-8.7,28.61-10.9,38.01.88,14.83,18.6-6.2,56.7-10.31,77.53-5.85,29.63,22.84,40.19,46.87,30.35,39.04-15.99,50.18-75.2,34.92-110.95-24.08-56.42-109.82-56.79-144.25-10.76-16.05,21.46-21.76,52.97-9.09,77.39,1.49,2.88,8.41,11.48,8.71,13.11.54,2.92-2.15,12.89-3.09,16.31-.85,3.08-2.13,11.63-6.33,10.86-6-1.1-16.25-9.9-20.34-14.51-27.24-30.71-26.16-79.51-5.48-113.42,20.72-33.97,58.96-51.44,97.79-54.66h2.95Z"/>
  <path class="st0" d="M256.23,108.22c-.41.89-1.58.56-2.36.59-.51-.17-.51-.36,0-.59h2.36Z"/>
  <path class="st0" d="M268.02,108.22c.51.17.51.36,0,.59-.77,0-1.95.29-2.36-.59h2.36Z"/>
  <path class="st0" d="M270.97,108.22c-.29.78-1.12.55-1.77.59-.51-.17-.51-.36,0-.59h1.77Z"/>
  <path class="st0" d="M251.51,108.22c.51.17.51.36,0,.59-.5-.04-1.01-.02-1.18-.59h1.18Z"/>
  <path class="st0" d="M252.69,108.22c.51.17.51.36,0,.59-.39,0-.79.03-1.18,0v-.59h1.18Z"/>
  <path class="st0" d="M253.87,108.22v.59c-.39.01-.79,0-1.18,0v-.59h1.18Z"/>
  <path class="st0" d="M269.2,108.22v.59c-.39.02-.79,0-1.18,0v-.59h1.18Z"/>
</svg>