<?xml version="1.0" encoding="UTF-8"?>
<svg id="Layer_1" xmlns="http://www.w3.org/2000/svg" version="1.1" viewBox="0 0 518 518">
  <!-- Generator: Adobe Illustrator 29.0.1, SVG Export Plug-In . SVG Version: 2.1.0 Build 192)  -->
  <defs>
    <style>
      .st0 {
        fill: #fff;
      }
    </style>
  </defs>
  <path class="st0" d="M434.36,191.91c-6.24-44.06-22.69-51.42-64.69-55.15-38.11-3.39-79.7-3.67-118.11-3.53-38.44.14-82.79-.02-120.7,5.13-52.63,7.15-49.7,51.52-51.42,94.63-1.31,32.98-2.24,77.64,5.76,109.6,11.14,44.47,60.4,38.95,97.22,40.59,54.52,2.43,111.65,2.96,166.28-.02,44.45-2.42,76.77-.61,84.89-52.17,6.44-40.9,6.57-98.08.77-139.08ZM222.51,312.77v-107.11l92.86,53.55-92.86,53.55Z"/>
</svg>